<svg width="32" height="32" viewBox="0 0 32 32" fill="none" xmlns="http://www.w3.org/2000/svg">
  <!-- Magic wand -->
  <path d="M8 24L24 8" stroke="#8B5CF6" stroke-width="2" stroke-linecap="round"/>
  
  <!-- Wand tip (star) -->
  <path d="M23 9L25 7L27 9L25 11L23 9Z" fill="#F59E0B"/>
  <path d="M25 7L25 11M23 9L27 9" stroke="#F59E0B" stroke-width="1"/>
  
  <!-- Magic sparkles -->
  <circle cx="12" cy="12" r="1" fill="#8B5CF6"/>
  <circle cx="18" cy="18" r="1.5" fill="#EC4899"/>
  <circle cx="10" cy="20" r="1" fill="#10B981"/>
  <circle cx="20" cy="12" r="1" fill="#F59E0B"/>
  
  <!-- Large sparkle -->
  <path d="M6 6L8 4L10 6L8 8L6 6Z" fill="#EC4899"/>
  <path d="M8 4L8 8M6 6L10 6" stroke="#EC4899" stroke-width="0.5"/>
  
  <!-- Small sparkles -->
  <path d="M26 20L27 19L28 20L27 21L26 20Z" fill="#10B981"/>
  <path d="M4 16L5 15L6 16L5 17L4 16Z" fill="#8B5CF6"/>
  
  <!-- AI circuit pattern -->
  <circle cx="16" cy="16" r="2" stroke="#8B5CF6" stroke-width="1" fill="none"/>
  <circle cx="16" cy="16" r="0.5" fill="#8B5CF6"/>
</svg>
